<svg width="32" height="32" viewBox="0 0 32 32" fill="none" xmlns="http://www.w3.org/2000/svg">
<g clip-path="url(#clip0_0_29)">
<path d="M14.6253 1.06249C14.0128 1.19374 13.4378 1.39375 13.244 1.55C13.094 1.68125 13.0628 2.06874 13.194 2.22499C13.3753 2.44374 13.5503 2.45 14.1128 2.25624C14.9003 1.9875 15.4065 1.91875 16.2753 1.95625C17.1378 1.99375 17.7065 2.13124 18.394 2.47499C19.8815 3.22499 20.9565 4.525 21.3878 6.11875C21.5815 6.81875 21.5753 8.0875 21.3815 8.80625C21.0878 9.91875 20.6003 10.7187 19.7315 11.5312C19.4128 11.8312 19.1253 12.1375 19.0815 12.2062C19.0315 12.2937 19.0065 12.6375 19.0003 13.1437C19.0003 14.325 18.844 14.5625 18.069 14.5625H17.7003L17.6753 13.85C17.6503 13.0125 17.5815 12.875 17.1753 12.875C16.7565 12.875 16.6878 13.0062 16.6878 13.8437V14.5625H16.0003H15.3128V13.8437C15.3128 13.0062 15.244 12.875 14.8253 12.875C14.419 12.875 14.3503 13.0125 14.3253 13.85L14.3003 14.5625H13.9315C13.1565 14.5625 13.0003 14.325 13.0003 13.1562C13.0003 12.7125 12.969 12.3125 12.9315 12.2375C12.894 12.1687 12.5503 11.8 12.169 11.4187C11.6565 10.9062 11.394 10.5875 11.2003 10.2375C10.0003 8.1 10.2565 5.6 11.869 3.79375C12.194 3.43125 12.2503 3.3375 12.2503 3.125C12.2503 2.9375 12.2128 2.85625 12.0878 2.75624C11.8253 2.55 11.6565 2.5875 11.2815 2.94374C10.7128 3.48125 10.1378 4.40625 9.81276 5.29375L9.66901 5.6875H5.35026C2.57526 5.6875 0.950257 5.7125 0.800256 5.75C0.669006 5.7875 0.481506 5.8875 0.375256 5.98125C-0.00599363 6.3 0.000256369 6.25 0.000256369 9.0625C0.000256369 11.5437 0.00650637 11.6312 0.125256 11.75C0.200256 11.825 0.331506 11.875 0.469006 11.875C0.606506 11.875 0.737756 11.825 0.812756 11.75C0.931507 11.6312 0.937756 11.5437 0.937756 9.275C0.937756 7.78125 0.962757 6.8875 1.00026 6.80625C1.06276 6.69375 1.18151 6.6875 5.26901 6.6875H9.46901L9.47526 7.58125C9.48151 8.3125 9.51276 8.575 9.64401 9.075C9.98776 10.3812 10.7565 11.6125 11.7565 12.475L11.9878 12.6687L12.0128 13.5062C12.0315 14.3062 12.044 14.3625 12.2253 14.6875C12.4315 15.0625 12.844 15.3875 13.2378 15.5C13.5503 15.5812 18.4503 15.5812 18.7628 15.5C19.1565 15.3875 19.569 15.0625 19.7753 14.6875C19.9565 14.3625 19.969 14.3062 19.9878 13.5125L20.0128 12.675L20.269 12.4437C21.319 11.5 22.0128 10.3812 22.3565 9.08125C22.4878 8.575 22.519 8.31875 22.5253 7.58125L22.5315 6.6875H26.7315C30.819 6.6875 30.9378 6.69375 31.0003 6.80625C31.044 6.8875 31.0628 9.41875 31.0628 14.5562V22.1812L28.2753 22.2L25.4878 22.2187L25.3378 22.3937C25.1565 22.6062 25.144 22.8062 25.319 23.025L25.444 23.1875H28.2565H31.0628V23.7125C31.0628 24 31.044 24.2812 31.0253 24.3375C30.9878 24.4312 29.6065 24.4375 16.0003 24.4375C2.39401 24.4375 1.01276 24.4312 0.975257 24.3375C0.956506 24.2812 0.937756 24 0.937756 23.7125V23.1875H12.344H23.744L23.8753 23.05C24.1128 22.7875 24.0128 22.375 23.6815 22.2562C23.5378 22.2062 20.2753 22.1875 12.2128 22.1875H0.937756V17.7625C0.937756 13.375 0.937756 13.3312 0.812756 13.2187C0.737756 13.15 0.587756 13.1 0.469006 13.1C0.350256 13.1 0.200256 13.15 0.125256 13.2187C0.000256372 13.3312 0.000256369 13.3625 0.000256369 19.0125C0.000256369 25.3062 -0.0247437 24.8937 0.419006 25.2312L0.644006 25.4062L5.70026 25.425C8.47526 25.4312 10.7503 25.4562 10.7503 25.475C10.7503 25.5 10.4628 26.0562 10.1128 26.7187L9.46901 27.925L8.37526 27.95C7.15026 27.9687 7.03776 28.0062 6.84401 28.4125C6.75651 28.5937 6.74401 28.8 6.76276 29.6312L6.78151 30.6375L7.01276 30.85L7.25026 31.0625H10.0878H12.9315L13.0565 30.9C13.2315 30.6812 13.219 30.4812 13.0378 30.2687L12.8878 30.0937L10.319 30.075L7.75026 30.0562V29.5V28.9375H15.9378H24.1253V29.5V30.0625L19.369 30.075L14.6128 30.0937L14.494 30.2437C14.3378 30.4375 14.3378 30.775 14.5003 30.9375C14.6253 31.0625 14.7065 31.0625 19.619 31.0625H24.6128L24.8065 30.9C25.0628 30.6812 25.1253 30.4187 25.1253 29.4687C25.1253 28.5687 25.0565 28.3375 24.7315 28.1C24.5753 27.9812 24.4378 27.9625 23.544 27.9375L22.5315 27.9062L21.894 26.7187C21.5378 26.0625 21.2503 25.5125 21.2503 25.4875C21.2503 25.4625 23.5253 25.4312 26.3003 25.425L31.3565 25.4062L31.5815 25.2312C32.0315 24.8875 32.0003 25.675 32.0003 15.5937C32.0003 5.6125 32.0253 6.31875 31.6253 5.98125C31.519 5.8875 31.3315 5.7875 31.2003 5.75C31.0503 5.7125 29.4253 5.6875 26.6503 5.6875H22.3315L22.1878 5.29375C21.8253 4.3 21.2815 3.47499 20.494 2.72499C19.5815 1.85625 18.5378 1.3 17.3503 1.05625C16.594 0.899996 15.3628 0.899996 14.6253 1.06249ZM20.7003 26.6375C21.0565 27.3 21.3565 27.8625 21.3628 27.8875C21.3753 27.9125 21.2128 27.9375 20.994 27.9375C20.6315 27.9375 20.5878 27.925 20.2878 27.6687C19.4815 26.9875 18.6253 26.5312 17.6253 26.2625C17.1128 26.125 16.9003 26.1062 16.0315 26.1C15.2003 26.1 14.9378 26.125 14.4815 26.2375C13.4565 26.4937 12.519 26.975 11.7065 27.6687C11.394 27.9375 11.3753 27.9437 11.0065 27.925L10.6253 27.9062L11.2878 26.6687L11.944 25.4375H16.0003H20.0565L20.7003 26.6375ZM17.344 27.25C17.619 27.3187 18.0815 27.4937 18.3753 27.6437L18.9065 27.9062L17.4503 27.925C16.6565 27.9312 15.344 27.9312 14.544 27.925L13.094 27.9062L13.5315 27.675C14.0128 27.4312 14.694 27.2062 15.2065 27.1187C15.7128 27.0375 16.7878 27.1062 17.344 27.25Z" fill="#BAFF00"/>
<path d="M11.6571 7.1501C11.4759 7.33135 11.4134 7.70635 11.4509 8.3751C11.4946 9.1751 11.9134 9.8501 12.5759 10.2001C12.9571 10.4001 13.7321 10.4001 14.1134 10.2001C14.4946 10.0001 14.8259 9.6376 15.0384 9.21885C15.1759 8.9251 15.2196 8.74385 15.2384 8.31885C15.2634 7.8501 15.2509 7.76885 15.1446 7.6751C15.0634 7.6001 14.5509 7.46885 13.5696 7.28135C12.7759 7.1251 12.0509 7.0001 11.9634 7.0001C11.8759 7.0001 11.7384 7.06885 11.6571 7.1501ZM14.2321 8.45635C14.2821 8.5126 13.9134 9.1251 13.7759 9.21885C13.5071 9.39385 13.2259 9.40635 12.9821 9.25635C12.7259 9.1001 12.4384 8.59385 12.4384 8.3001V8.08135L13.3259 8.25635C13.8134 8.35635 14.2196 8.44385 14.2321 8.45635Z" fill="#BAFF00"/>
<path d="M18.3132 7.28755C16.6194 7.6188 16.6632 7.5938 16.7007 8.3438C16.7319 8.93755 16.9444 9.4438 17.3194 9.8188C18.1507 10.65 19.4444 10.5188 20.0944 9.5438C20.3944 9.08755 20.5069 8.70005 20.5069 8.0813C20.5069 7.3063 20.3257 6.9938 19.8944 7.0063C19.8007 7.0063 19.0882 7.1313 18.3132 7.28755ZM19.5007 8.33755C19.4444 8.7063 19.1819 9.13755 18.9194 9.27505C18.5194 9.4938 18.0507 9.26255 17.8069 8.72505C17.7444 8.58755 17.7007 8.46255 17.7132 8.4563C17.7257 8.4438 19.2819 8.1063 19.5069 8.0688C19.5257 8.06255 19.5257 8.18755 19.5007 8.33755Z" fill="#BAFF00"/>
<path d="M2.6875 8.10624C2.375 8.22499 2.375 8.23124 2.375 9.88124V11.4312L2.5375 11.5562C2.725 11.7062 2.8625 11.7187 3.09375 11.6125C3.34375 11.5 3.3875 11.2312 3.3625 9.73749C3.34375 8.47499 3.3375 8.36874 3.21875 8.25624C3.08125 8.11874 2.83125 8.04999 2.6875 8.10624Z" fill="#BAFF00"/>
<path d="M5.13125 8.15628C4.8125 8.25628 4.5375 8.50003 4.36875 8.82503C4.26875 9.01878 4.25 9.19378 4.25 9.89378C4.25 10.65 4.2625 10.7563 4.39375 11.0063C4.79375 11.7625 5.875 11.9063 6.48125 11.2813C6.8125 10.9375 6.9 10.5688 6.86875 9.68128C6.84375 9.10628 6.81875 8.99378 6.66875 8.73753C6.3625 8.21253 5.7125 7.96878 5.13125 8.15628ZM5.8 9.23753C5.84375 9.30003 5.875 9.53753 5.875 9.88753C5.875 10.3563 5.85625 10.4563 5.75 10.5625C5.6 10.7125 5.48125 10.7188 5.35 10.5875C5.275 10.5125 5.25 10.35 5.25 9.87503C5.25 9.31878 5.2625 9.25003 5.38125 9.16253C5.525 9.06253 5.675 9.08753 5.8 9.23753Z" fill="#BAFF00"/>
<path d="M8.01875 8.12506C7.76875 8.22506 7.75 8.36881 7.75 9.93131V11.4313L7.9125 11.5563C8.11875 11.7188 8.38125 11.7251 8.56875 11.5688C8.71875 11.4501 8.71875 11.4376 8.7375 9.95006C8.75625 8.46256 8.75625 8.45006 8.6125 8.29381C8.45 8.10631 8.21875 8.04381 8.01875 8.12506Z" fill="#BAFF00"/>
<path d="M23.5815 8.12499C23.2627 8.25624 23.244 8.36874 23.2627 9.96874C23.2815 11.4375 23.2815 11.45 23.4315 11.5687C23.619 11.725 23.8815 11.7187 24.0877 11.5562L24.2502 11.4312V9.90624C24.2502 8.54999 24.2377 8.37499 24.144 8.2625C24.0127 8.10625 23.769 8.04375 23.5815 8.12499Z" fill="#BAFF00"/>
<path d="M26.1496 8.12506C25.8184 8.20006 25.5059 8.43131 25.3309 8.73756C25.1809 8.99381 25.1559 9.10631 25.1309 9.68131C25.0996 10.5876 25.1871 10.9438 25.5309 11.2876C25.8371 11.5938 26.1934 11.7188 26.6121 11.6688C26.9996 11.6251 27.4309 11.3376 27.6059 11.0063C27.7371 10.7563 27.7496 10.6501 27.7496 9.90006C27.7496 9.44381 27.7246 9.00006 27.6871 8.91256C27.5746 8.60006 27.1871 8.25631 26.8559 8.15631C26.5121 8.05631 26.4434 8.05006 26.1496 8.12506ZM26.7371 9.86256C26.7496 10.3688 26.7371 10.5063 26.6559 10.5876C26.5121 10.7251 26.3371 10.7126 26.2246 10.5501C26.0996 10.3751 26.0871 9.38756 26.2059 9.23756C26.3184 9.09381 26.4496 9.06881 26.5934 9.15631C26.6996 9.22506 26.7184 9.31256 26.7371 9.86256Z" fill="#BAFF00"/>
<path d="M28.9375 8.14378C28.6562 8.28753 28.625 8.43753 28.625 9.85628C28.625 10.625 28.65 11.25 28.6875 11.35C28.8188 11.6938 29.1687 11.7875 29.4625 11.5563L29.625 11.4313V9.90628C29.625 8.55003 29.6125 8.37503 29.5188 8.26253C29.375 8.09378 29.1313 8.04378 28.9375 8.14378Z" fill="#BAFF00"/>
<path d="M15.782 10.1251C15.7133 10.1501 15.4508 10.3876 15.2008 10.6438C14.7883 11.0563 14.7383 11.1376 14.7383 11.3501C14.7383 11.6438 14.9195 11.8126 15.2258 11.8126C15.3945 11.8126 15.507 11.7563 15.707 11.5688L15.9695 11.3251L16.2633 11.6001C16.6695 11.9751 17.0633 11.9813 17.2195 11.6126C17.3383 11.3126 17.2695 11.1688 16.732 10.6376C16.2195 10.1313 16.0133 10.0188 15.782 10.1251Z" fill="#BAFF00"/>
<path d="M3.225 12.7187C2.93125 12.8187 2.65625 13.075 2.49375 13.3875C2.39375 13.5812 2.375 13.7562 2.375 14.4687C2.375 15.0937 2.4 15.375 2.46875 15.55C2.79375 16.325 3.7875 16.5875 4.5125 16.0812C4.65 15.9875 4.8125 15.7937 4.90625 15.6062C5.05 15.3187 5.0625 15.2125 5.0625 14.5437C5.0625 13.6375 4.9875 13.3625 4.65625 13.0312C4.275 12.65 3.74375 12.5312 3.225 12.7187ZM3.9375 13.75C4.05625 13.8687 4.0625 13.9437 4.05 14.5125C4.03125 15.1125 4.025 15.15 3.8625 15.2687C3.70625 15.3875 3.6875 15.3875 3.5375 15.2875C3.38125 15.1875 3.375 15.1625 3.375 14.5187C3.375 13.9875 3.39375 13.8312 3.48125 13.7375C3.6125 13.5875 3.78125 13.5937 3.9375 13.75Z" fill="#BAFF00"/>
<path d="M6.9195 12.7126C6.48825 12.8751 6.22575 13.1563 6.08825 13.6188C5.95075 14.0751 5.98825 15.2438 6.15075 15.5626C6.582 16.4001 7.582 16.6063 8.27575 15.9876C8.67575 15.6438 8.7695 15.2876 8.7445 14.3188C8.7195 13.6626 8.70075 13.5688 8.5445 13.3001C8.22575 12.7563 7.50075 12.4938 6.9195 12.7126ZM7.62575 13.7501C7.732 13.8563 7.75075 13.9563 7.75075 14.4688C7.75075 15.0188 7.73825 15.0813 7.5945 15.2188C7.51325 15.3063 7.41325 15.3751 7.37575 15.3751C7.33825 15.3751 7.23825 15.3063 7.157 15.2188C7.01325 15.0813 7.00075 15.0188 7.00075 14.5126C7.00075 14.0438 7.0195 13.9313 7.132 13.7876C7.282 13.5938 7.457 13.5813 7.62575 13.7501Z" fill="#BAFF00"/>
<path d="M24.0002 12.7937C23.7502 12.925 23.6065 13.0562 23.469 13.2812C23.294 13.5625 23.2815 13.6312 23.2565 14.3187C23.2315 15.2875 23.3252 15.6437 23.7252 15.9875C24.419 16.6062 25.4002 16.4062 25.8502 15.5625C25.9502 15.3812 25.969 15.2062 25.969 14.5312C25.969 13.6187 25.9065 13.375 25.6127 13.0687C25.3377 12.7875 25.1002 12.6812 24.694 12.6437C24.394 12.6187 24.294 12.6375 24.0002 12.7937ZM24.869 13.7875C24.9815 13.9312 25.0002 14.0437 25.0002 14.5125C25.0002 15.0187 24.9877 15.0812 24.844 15.2187C24.7627 15.3062 24.6627 15.375 24.6252 15.375C24.5877 15.375 24.4877 15.3062 24.4065 15.2187C24.2627 15.0812 24.2502 15.0187 24.2502 14.4687C24.2502 13.9562 24.269 13.8562 24.3752 13.75C24.544 13.5812 24.719 13.5937 24.869 13.7875Z" fill="#BAFF00"/>
<path d="M27.8132 12.7062C27.4944 12.8062 27.1007 13.2312 27.0069 13.5687C26.9569 13.7562 26.9319 14.1312 26.9507 14.6375C26.9694 15.375 26.9819 15.4312 27.1569 15.7187C27.7132 16.6187 29.1257 16.5187 29.5319 15.55C29.6007 15.375 29.6257 15.0937 29.6257 14.4687C29.6257 13.75 29.6069 13.5812 29.5069 13.3812C29.1882 12.7687 28.5007 12.4875 27.8132 12.7062ZM28.5132 13.7312C28.6069 13.8187 28.6257 13.9312 28.6257 14.5062C28.6257 15.1625 28.6194 15.1875 28.4632 15.2875C28.3132 15.3875 28.2944 15.3875 28.1382 15.2687C27.9757 15.15 27.9694 15.1125 27.9507 14.5125C27.9382 13.9437 27.9444 13.8687 28.0632 13.75C28.2132 13.6 28.3569 13.5875 28.5132 13.7312Z" fill="#BAFF00"/>
<path d="M2.5 17.5625C2.38125 17.6813 2.375 17.7688 2.375 19.2188C2.375 20.6688 2.38125 20.7563 2.5 20.875C2.7625 21.1375 3.25 20.9813 3.34375 20.6063C3.3625 20.5313 3.375 19.8438 3.3625 19.0813C3.34375 17.825 3.33125 17.6875 3.225 17.5688C3.0625 17.3938 2.675 17.3875 2.5 17.5625Z" fill="#BAFF00"/>
<path d="M4.90625 17.5375C4.63125 17.6875 4.4375 17.8812 4.30625 18.1375C4.20625 18.3312 4.1875 18.5062 4.1875 19.2C4.1875 19.9437 4.20625 20.0687 4.33125 20.3125C4.73125 21.1062 5.85 21.2375 6.4625 20.5625C6.74375 20.25 6.8125 19.9875 6.8125 19.2187C6.8125 18.3125 6.66875 17.9437 6.2 17.6187C5.9125 17.425 5.19375 17.3812 4.90625 17.5375ZM5.7 18.5437C5.85 18.6812 5.8625 19.65 5.7125 19.8625C5.60625 20.0125 5.38125 20.0437 5.2625 19.925C5.1625 19.825 5.1625 18.6125 5.2625 18.5125C5.36875 18.4062 5.5625 18.4187 5.7 18.5437Z" fill="#BAFF00"/>
<path d="M7.75 17.5625C7.63125 17.6812 7.625 17.7687 7.625 19.2062C7.625 20.7187 7.625 20.7312 7.76875 20.8625C7.95 21.0312 8.25 21.0375 8.44375 20.8812C8.59375 20.7625 8.59375 20.75 8.6125 19.2687C8.63125 17.825 8.625 17.7687 8.5 17.6062C8.33125 17.3937 7.94375 17.3687 7.75 17.5625Z" fill="#BAFF00"/>
<path d="M10.1562 17.5375C9.56875 17.8563 9.44375 18.1563 9.4375 19.225C9.4375 19.9625 9.45 20.0688 9.58125 20.3188C9.975 21.0563 10.9688 21.225 11.6063 20.6688C11.975 20.3438 12.0625 20.0813 12.0625 19.2125C12.0625 18.525 12.05 18.4313 11.9 18.1313C11.6625 17.6625 11.3625 17.475 10.7875 17.45C10.4688 17.4375 10.2937 17.4625 10.1562 17.5375ZM10.9625 18.5375C11.1063 18.6813 11.1063 19.725 10.9563 19.8875C10.8313 20.025 10.6688 20.0313 10.5375 19.9C10.4125 19.775 10.3938 18.6313 10.5125 18.5125C10.6187 18.4063 10.85 18.4188 10.9625 18.5375Z" fill="#BAFF00"/>
<path d="M13.0125 17.5813C12.8813 17.725 12.875 17.775 12.875 19.2C12.875 20.5938 12.8813 20.6813 13.0063 20.8375C13.1813 21.0563 13.5063 21.0625 13.7188 20.8438L13.875 20.6938V19.2313C13.875 17.8438 13.8688 17.7563 13.7438 17.6C13.575 17.3813 13.2063 17.375 13.0125 17.5813Z" fill="#BAFF00"/>
<path d="M15.3691 17.5812C15.2191 17.6625 15.0128 17.85 14.9066 17.9937C14.7253 18.2562 14.7191 18.2812 14.7003 19.1C14.6753 19.9062 14.6816 19.9562 14.8378 20.275C14.9441 20.4938 15.0941 20.6687 15.2628 20.7875C15.4941 20.95 15.5753 20.9688 16.0003 20.9688C16.4253 20.9688 16.5066 20.95 16.7378 20.7875C16.9066 20.6687 17.0566 20.4938 17.1628 20.275C17.3191 19.9562 17.3253 19.9062 17.3003 19.1C17.2816 18.2812 17.2753 18.2562 17.0941 17.9937C16.8378 17.6312 16.4566 17.4375 16.0003 17.4375C15.7503 17.4375 15.5628 17.4813 15.3691 17.5812ZM16.2503 18.5562C16.2816 18.625 16.3128 18.9312 16.3128 19.2437C16.3128 19.8375 16.2441 20 16.0003 20C15.7566 20 15.6878 19.8375 15.6878 19.2437C15.6878 18.5812 15.7441 18.4375 16.0003 18.4375C16.1191 18.4375 16.2066 18.4813 16.2503 18.5562Z" fill="#BAFF00"/>
<path d="M18.2563 17.6C18.1313 17.7563 18.125 17.8438 18.125 19.2313V20.6938L18.2812 20.8438C18.4938 21.0625 18.8188 21.0563 18.9938 20.8375C19.1188 20.6813 19.125 20.5938 19.125 19.1875C19.125 17.725 19.125 17.7063 18.9812 17.575C18.7688 17.375 18.425 17.3875 18.2563 17.6Z" fill="#BAFF00"/>
<path d="M20.6193 17.5813C20.4381 17.6813 20.2818 17.8313 20.1568 18.0313C19.9818 18.3188 19.9693 18.375 19.9506 19.0875C19.9256 19.9688 19.9818 20.225 20.2881 20.5625C20.8943 21.2375 22.0006 21.1063 22.4193 20.3188C22.5506 20.0688 22.5631 19.9625 22.5631 19.2375C22.5631 18.3813 22.5006 18.1125 22.2318 17.825C21.8568 17.4188 21.1318 17.3125 20.6193 17.5813ZM21.4881 18.5125C21.6068 18.6313 21.5881 19.775 21.4631 19.9C21.3381 20.0313 21.1943 20.025 21.0506 19.8938C20.8943 19.7563 20.8818 18.6875 21.0381 18.5375C21.1506 18.4188 21.3818 18.4063 21.4881 18.5125Z" fill="#BAFF00"/>
<path d="M23.5003 17.6063C23.3753 17.7688 23.369 17.825 23.3878 19.2688C23.4065 20.75 23.4065 20.7625 23.5565 20.8813C23.7565 21.0438 24.069 21.0375 24.2378 20.8563C24.369 20.7125 24.3753 20.6625 24.3753 19.2C24.3753 17.7688 24.369 17.6813 24.2503 17.5625C24.0565 17.3688 23.669 17.3938 23.5003 17.6063Z" fill="#BAFF00"/>
<path d="M25.9687 17.525C25.7437 17.625 25.4625 17.9 25.325 18.1563C25.1937 18.4 25.1437 19.6625 25.25 20.05C25.5437 21.1625 27.1562 21.3313 27.675 20.3125C27.7937 20.0688 27.8125 19.9438 27.8125 19.2C27.8125 18.325 27.7687 18.1438 27.475 17.825C27.15 17.4625 26.4312 17.325 25.9687 17.525ZM26.7375 18.5125C26.7875 18.5625 26.8125 18.8125 26.8125 19.2188C26.8125 19.8875 26.7687 20 26.525 20C26.2812 20 26.1875 19.7813 26.1875 19.1938C26.1875 18.7875 26.2125 18.6375 26.2937 18.55C26.4062 18.4188 26.625 18.4 26.7375 18.5125Z" fill="#BAFF00"/>
<path d="M28.775 17.5688C28.6625 17.6938 28.6562 17.8125 28.6562 19.2313V20.7625L28.8063 20.8813C29 21.0375 29.3125 21.0313 29.4875 20.875C29.6188 20.75 29.625 20.7063 29.625 19.2188C29.625 17.7688 29.6188 17.6813 29.5 17.5625C29.325 17.3875 28.9375 17.3938 28.775 17.5688Z" fill="#BAFF00"/>
</g>
<defs>
<clipPath id="clip0_0_29">
<rect width="32" height="32" fill="white"/>
</clipPath>
</defs>
</svg>
