<svg width="32" height="32" viewBox="0 0 32 32" fill="none" xmlns="http://www.w3.org/2000/svg">
<g clip-path="url(#clip0_0_63)">
<path d="M3.28031 0.093751C2.80531 0.225 2.12406 0.587501 1.77406 0.900001C1.34281 1.28125 0.905309 1.93125 0.705309 2.5C0.549059 2.93125 0.536559 3.06875 0.511559 4.14375C0.486559 5.3125 0.486559 5.3125 0.655309 5.6625C0.767809 5.8875 0.905309 6.0625 1.06781 6.16875C1.20531 6.25625 1.32406 6.3875 1.34281 6.4625C1.50531 7.275 1.59906 7.5375 1.79906 7.76875C1.91156 7.89375 1.93656 7.86875 1.48656 8.0875C0.942809 8.35 0.536559 8.74375 0.26781 9.3L0.0303096 9.775L0.0115596 10.9313C-0.0071904 12.0625 -0.0071904 12.1 0.13656 12.3063C0.21781 12.425 0.361559 12.5813 0.455309 12.65C0.630309 12.7813 0.692809 12.7813 4.20531 12.7938L7.78031 12.8125L8.03031 12.6688C8.19281 12.5813 8.33031 12.4313 8.42406 12.25C8.56156 11.9813 8.56781 11.9125 8.54906 10.9063L8.53031 9.84375L8.30531 9.375C8.01781 8.7875 7.59906 8.35625 7.05531 8.09375L6.63656 7.89375L6.78031 7.7125C6.94281 7.5 7.10531 7.03125 7.16156 6.60625C7.18656 6.44375 7.22406 6.3125 7.25531 6.3125C7.36156 6.3125 7.76156 5.90625 7.88031 5.68125C7.98656 5.46875 7.99906 5.30625 7.99906 4.29375C7.99906 3.01875 7.94281 2.675 7.61156 2C7.47406 1.71875 7.24906 1.4375 6.90531 1.09375C6.36156 0.550001 5.88031 0.262501 5.21781 0.093751C4.76156 -0.0249996 3.71156 -0.0187492 3.28031 0.093751ZM5.32406 1.3375C5.87406 1.6 6.33656 2.05625 6.58656 2.58125C6.70531 2.83125 6.82406 3.13125 6.84906 3.25L6.88656 3.4625L6.74281 3.35625C6.42406 3.13125 6.21781 3.05 5.81781 2.99375C5.57406 2.95625 5.22406 2.85 4.95531 2.71875C4.37406 2.4375 4.13656 2.4375 3.58031 2.7125C3.34906 2.83125 3.01781 2.95 2.84281 2.96875C2.38656 3.03125 2.11781 3.11875 1.88031 3.3L1.66781 3.45625L1.71156 3.19375C1.81156 2.5625 2.42406 1.73125 3.01781 1.425C3.49906 1.18125 3.75531 1.125 4.37406 1.14375C4.86781 1.1625 5.02406 1.19375 5.32406 1.3375ZM4.57406 3.81875C4.71781 3.89375 5.09281 4.00625 5.39906 4.06875C5.71156 4.13125 5.99281 4.225 6.03031 4.275C6.06156 4.325 6.14281 4.45 6.19906 4.55625C6.26156 4.675 6.36781 4.7625 6.48031 4.78125C6.73031 4.8375 6.84281 4.90625 6.86156 5.025C6.89281 5.175 6.76156 5.3125 6.58031 5.3125C6.32406 5.3125 6.14906 5.55625 6.09906 5.975C5.99906 6.84375 5.94281 6.9875 5.58031 7.28125C5.19281 7.6 4.68031 7.8625 4.35531 7.91875C4.03656 7.96875 3.29906 7.6125 2.88656 7.20625C2.60531 6.9375 2.56781 6.86875 2.50531 6.49375C2.46781 6.26875 2.43656 5.99375 2.43656 5.8875C2.43656 5.64375 2.16781 5.3125 1.96781 5.3125C1.82406 5.3125 1.62406 5.16875 1.62406 5.0625C1.62406 4.95625 1.82406 4.8125 1.97406 4.8125C2.13656 4.8125 2.24281 4.71875 2.45531 4.375C2.58656 4.175 2.63031 4.15625 3.08031 4.08125C3.34281 4.0375 3.70531 3.93125 3.88656 3.85C4.29906 3.6625 4.26781 3.6625 4.57406 3.81875ZM3.09281 8.74375C3.13031 8.80625 3.79906 9.03125 4.08656 9.08125C4.32406 9.11875 4.98656 8.98125 5.28656 8.825L5.53031 8.7L5.91156 8.84375C6.68656 9.1375 7.02406 9.38125 7.26781 9.84375C7.38031 10.05 7.40531 10.225 7.42406 10.8875L7.44906 11.6875H4.28656H1.12406V10.9188C1.12406 10.2188 1.13656 10.1188 1.28656 9.825C1.49906 9.4 1.78031 9.175 2.43031 8.9125C3.03031 8.66875 3.04281 8.6625 3.09281 8.74375Z" fill="#BAFF00"/>
<path d="M26.2191 0.093751C25.0066 0.431251 24.0379 1.35 23.6191 2.5625C23.5004 2.9125 23.4754 3.15625 23.4379 4.28125C23.3941 5.7 23.3316 6.00625 22.9691 6.58125C22.8754 6.725 22.7066 7 22.5879 7.1875C22.3316 7.59375 22.3004 7.9875 22.5004 8.375C22.6316 8.63125 22.9316 8.89375 23.1754 8.96875C23.2566 8.99375 23.3066 9.04375 23.2879 9.08125C22.9691 9.8 22.9316 9.9625 22.8941 10.675C22.8316 11.9188 22.9441 12.3438 23.4316 12.6688L23.6441 12.8125H27.1816H30.7191L30.9629 12.6688C31.1191 12.5813 31.2629 12.425 31.3566 12.2563C31.4879 12.0063 31.5004 11.9 31.5004 11.1C31.5004 10.1688 31.4254 9.7125 31.1879 9.25L31.0629 9.00625L31.2691 8.94375C31.4816 8.86875 31.8066 8.575 31.9316 8.33125C31.9691 8.25625 32.0004 8.03125 32.0004 7.83125C32.0004 7.45625 31.9754 7.39375 31.5129 6.7125C31.0754 6.0625 30.9379 5.425 30.9379 4.0625C30.9379 2.6 30.6941 1.9375 29.8441 1.09375C29.3004 0.550001 28.8129 0.262501 28.1566 0.093751C27.7004 -0.0249996 26.6504 -0.0187492 26.2191 0.093751ZM28.2566 1.33125C28.6754 1.53125 29.1191 1.9125 29.3754 2.275C29.5816 2.58125 29.8129 3.21875 29.8129 3.5C29.8129 3.675 29.8004 3.6875 29.5629 3.6875C29.2129 3.6875 29.0254 3.58125 28.8441 3.275C28.6316 2.9125 28.3504 2.75 27.9254 2.75C27.6316 2.75 27.5316 2.7875 27.1066 3.05C26.4566 3.4625 25.9316 3.63125 25.1629 3.675L24.5441 3.70625L24.5941 3.4C24.7504 2.35625 25.4441 1.55 26.4691 1.20625C26.6254 1.15625 26.9379 1.13125 27.3129 1.14375C27.8066 1.1625 27.9691 1.19375 28.2566 1.33125ZM28.0941 4.20625C28.3316 4.53125 28.7629 4.75625 29.2629 4.80625C29.7129 4.85625 29.8129 4.9 29.8129 5.05625C29.8129 5.2 29.6879 5.3125 29.5254 5.3125C29.2441 5.3125 29.1066 5.5125 29.0566 5.9875C28.9941 6.5625 28.8254 6.93125 28.4691 7.28125C28.1379 7.6 27.4816 7.9375 27.1941 7.9375C26.9254 7.9375 26.3004 7.6125 25.9566 7.29375C25.5816 6.95 25.3754 6.5125 25.3754 6.05C25.3754 5.625 25.2316 5.41875 24.8441 5.3C24.5691 5.2125 24.5004 5.06875 24.6566 4.9125C24.7316 4.8375 24.8754 4.8125 25.2066 4.8125C25.9504 4.8125 26.8629 4.54375 27.5379 4.1375C27.7066 4.03125 27.8566 3.94375 27.8754 3.94375C27.8941 3.94375 27.9941 4.0625 28.0941 4.20625ZM24.7066 7.5875C24.8066 7.7125 24.8629 7.8375 24.8441 7.875C24.7566 8.0125 24.3441 8.075 23.9941 8.00625C23.4879 7.9 23.4691 7.875 23.6816 7.5875C23.7816 7.45625 23.9504 7.16875 24.0629 6.95625L24.2691 6.5625L24.4004 6.9625C24.4754 7.18125 24.6129 7.4625 24.7066 7.5875ZM30.6254 7.4375C30.7691 7.65 30.8629 7.84375 30.8379 7.875C30.7691 7.93125 30.2441 8.0625 30.0754 8.0625C30.0066 8.0625 29.8504 8.01875 29.7254 7.96875L29.5004 7.875L29.7129 7.54375C29.8316 7.36875 29.9754 7.06875 30.0379 6.8875L30.1441 6.55625L30.2566 6.80625C30.3129 6.94375 30.4816 7.23125 30.6254 7.4375ZM26.4316 8.9125C27.0004 9.14375 27.4941 9.1375 28.0379 8.88125L28.4441 8.69375L28.8379 8.8375C29.6254 9.1375 29.9629 9.38125 30.2066 9.84375C30.3191 10.05 30.3441 10.225 30.3629 10.8875L30.3879 11.6875H27.1879H23.9816L24.0129 10.95C24.0629 9.73125 24.3254 9.3375 25.3691 8.9125C25.6629 8.79375 25.9379 8.70625 25.9691 8.71875C26.0066 8.73125 26.2129 8.81875 26.4316 8.9125Z" fill="#BAFF00"/>
<path d="M11.2313 9.63125C10.5875 9.78125 10.0563 10.225 9.76875 10.8438L9.59375 11.2188V16V20.7813L9.76875 21.1563C9.99375 21.6438 10.3625 22.0125 10.8375 22.2313L11.2188 22.4062H16H20.7812L21.1625 22.2313C21.6375 22.0125 22.0063 21.6438 22.2312 21.1563L22.4062 20.7813V16V11.2188L22.2312 10.8438C22.0063 10.3563 21.6375 9.9875 21.1625 9.76875L20.7812 9.59375L16.125 9.58125C13.5375 9.575 11.3625 9.6 11.2313 9.63125ZM12.75 12.5438C12.75 13.65 12.775 14.5 12.8188 14.6438C12.9688 15.1813 13.5438 15.5563 14.1125 15.475C14.3438 15.4438 14.5813 15.3188 15.2063 14.9063L16 14.375L16.8063 14.9125C17.45 15.3375 17.675 15.4563 17.9062 15.4813C18.4625 15.55 19.0375 15.175 19.1813 14.6438C19.225 14.5 19.25 13.65 19.25 12.5438V10.6875H19.8313C20.6562 10.6938 20.9938 10.8625 21.2188 11.3938C21.3 11.5875 21.3125 12.2 21.3125 16C21.3125 19.8 21.3 20.4125 21.2188 20.6063C21.0875 20.9188 20.9563 21.0563 20.6562 21.1938C20.4187 21.3 20.1438 21.3125 16.0125 21.3125C12.2 21.3125 11.5938 21.3 11.3938 21.2188C11.0813 21.0875 10.9438 20.9563 10.8062 20.6563C10.7 20.4188 10.6875 20.1438 10.6875 16.0125C10.6875 12.2 10.7 11.5938 10.7812 11.3938C11.0063 10.8625 11.3438 10.6938 12.175 10.6875H12.75V12.5438ZM18.125 12.4875C18.125 13.4813 18.1062 14.3063 18.0875 14.3313C18.0688 14.35 17.6313 14.0875 17.1125 13.7438C16.475 13.325 16.125 13.125 16 13.125C15.875 13.125 15.525 13.325 14.8875 13.7438C14.3688 14.0875 13.9313 14.35 13.9125 14.3313C13.8938 14.3063 13.875 13.4813 13.875 12.4875V10.6875H16H18.125V12.4875Z" fill="#BAFF00"/>
<path d="M12.2365 17.1875C12.1115 17.2563 11.9427 17.4125 11.8615 17.5438C11.7365 17.75 11.7177 17.875 11.699 18.5C11.6677 19.3563 11.7427 19.6938 12.024 19.975C12.3302 20.2813 12.599 20.325 14.0302 20.3C15.274 20.2813 15.2927 20.2813 15.5427 20.1125C15.9365 19.85 15.999 19.65 15.999 18.6375C15.999 17.8375 15.9865 17.75 15.8552 17.5563C15.7802 17.4438 15.6177 17.2813 15.5052 17.2063C15.299 17.0688 15.249 17.0625 13.8802 17.0625C12.6115 17.0688 12.4427 17.0813 12.2365 17.1875ZM14.874 18.6875V19.1875H13.8427H12.8115V18.6875V18.1875H13.8427H14.874V18.6875Z" fill="#BAFF00"/>
<path d="M3.8875 19.2776C2.6125 19.5901 1.49375 20.7026 1.1625 21.9776C1.09375 22.2464 1.0625 22.6463 1.0625 23.2589C1.0625 24.7214 0.93125 25.2463 0.3375 26.1338C0.01875 26.6151 0 26.6651 0 27.0276C0 27.5526 0.175 27.8588 0.6 28.0713L0.91875 28.2338L0.80625 28.4588C0.575 28.8963 0.5 29.3713 0.5 30.2838C0.5 31.2838 0.58125 31.5651 0.94375 31.8213L1.15625 31.9713L4.7375 31.9901C8.3 32.0026 8.325 32.0026 8.5625 31.8713C8.95625 31.6526 9.08125 31.3401 9.1125 30.5338C9.14375 29.7088 9.05 29.0276 8.8375 28.5713C8.75625 28.3838 8.69375 28.2338 8.7 28.2276C9.175 28.0526 9.55625 27.6463 9.60625 27.2651C9.65625 26.8713 9.58125 26.6088 9.2875 26.1776C8.675 25.2838 8.5625 24.8713 8.5625 23.5276C8.5625 22.3463 8.5 21.9901 8.15 21.2713C7.51875 19.9588 6.25625 19.1839 4.7875 19.1964C4.475 19.1964 4.06875 19.2338 3.8875 19.2776ZM5.58125 20.4401C6.5375 20.7338 7.28125 21.6214 7.4125 22.6214L7.45625 22.9464L7.18125 22.9088C6.7375 22.8463 6.6 22.7651 6.425 22.4713C6.2 22.1026 5.93125 21.9401 5.53125 21.9401C5.2625 21.9401 5.14375 21.9838 4.75 22.2276C4.13125 22.6151 3.56875 22.8214 3.03125 22.8526C2.79375 22.8714 2.5 22.8963 2.38125 22.9088L2.16875 22.9339L2.20625 22.5901C2.225 22.4026 2.325 22.0651 2.425 21.8463C2.99375 20.6339 4.30625 20.0463 5.58125 20.4401ZM6.225 23.8463C6.35625 23.9088 6.65625 23.9901 6.89375 24.0276C7.36875 24.1089 7.525 24.2276 7.38125 24.4026C7.33125 24.4588 7.23125 24.5026 7.15 24.5026C7.075 24.5026 6.93125 24.5651 6.8375 24.6463C6.7 24.7713 6.66875 24.8589 6.625 25.2589C6.6 25.5151 6.53125 25.8276 6.475 25.9526C6.2625 26.4026 5.5875 26.9338 4.9875 27.1276C4.76875 27.1963 4.71875 27.1838 4.3 26.9776C3.425 26.5588 3.0125 26.0276 2.95625 25.2589C2.91875 24.7651 2.81875 24.5901 2.55 24.5339C2.2875 24.4776 2.1875 24.3963 2.1875 24.2463C2.1875 24.0838 2.425 24.0026 2.89375 24.0026C3.61875 24.0026 4.5 23.7338 5.175 23.3151L5.4625 23.1401L5.73125 23.4401C5.875 23.6026 6.1 23.7838 6.225 23.8463ZM2.00625 26.1901C2.06875 26.3588 2.2 26.6276 2.30625 26.7838L2.5 27.0713L2.28125 27.1651C2.1625 27.2088 1.99375 27.2526 1.90625 27.2526C1.69375 27.2526 1.19375 27.1276 1.15625 27.0588C1.1375 27.0338 1.23125 26.8588 1.3625 26.6713C1.49375 26.4838 1.65 26.2151 1.7125 26.0713C1.78125 25.9276 1.84375 25.8276 1.8625 25.8463C1.88125 25.8651 1.94375 26.0151 2.00625 26.1901ZM7.9 26.1088C7.98125 26.2776 8.15 26.5463 8.275 26.7151C8.39375 26.8838 8.48125 27.0463 8.46875 27.0713C8.43125 27.1276 7.91875 27.2526 7.7125 27.2526C7.51875 27.2526 7.125 27.1213 7.125 27.0588C7.125 27.0401 7.18125 26.9463 7.25 26.8588C7.4125 26.6526 7.6875 26.0651 7.6875 25.9213C7.6875 25.7526 7.7375 25.7963 7.9 26.1088ZM4.8125 28.2776C5.1375 28.2776 5.30625 28.2401 5.64375 28.0776L6.0625 27.8838L6.63125 28.1213C7.34375 28.4151 7.56875 28.5963 7.78125 29.0276C7.925 29.3213 7.95625 29.4776 7.98125 30.1213L8.01875 30.8776H4.8125H1.6125L1.6375 30.0776C1.65625 29.4088 1.68125 29.2401 1.8 29.0213C2 28.6463 2.35 28.3776 2.975 28.1213L3.53125 27.9026L3.96875 28.0901C4.30625 28.2401 4.5 28.2776 4.8125 28.2776Z" fill="#BAFF00"/>
<path d="M26.825 19.275C25.525 19.5937 24.425 20.6937 24.0875 22.0062C24.0125 22.2875 24 22.6562 24.0125 23.5875L24.0312 24.8L24.225 25.0437C24.3312 25.175 24.5 25.3375 24.6062 25.4062C24.7562 25.5062 24.8062 25.5875 24.8375 25.8125C24.8937 26.225 25.0562 26.6937 25.225 26.9125L25.3687 27.1062L25.0187 27.25C24.5937 27.425 24.0187 27.95 23.7875 28.375C23.5062 28.8937 23.4375 29.25 23.4375 30.25C23.4375 31.0687 23.45 31.1875 23.5812 31.4375C23.6562 31.5937 23.8125 31.7812 23.9312 31.8562L24.1437 32H27.7187H31.2937L31.5062 31.8562C31.6187 31.7812 31.7812 31.6187 31.8625 31.5C32.0062 31.2875 32.0062 31.25 31.9875 30.125C31.9687 29.0125 31.9625 28.9562 31.7937 28.6C31.4875 27.9375 30.925 27.4062 30.3 27.1812C30.0687 27.1 30.0625 27.1 30.1812 26.975C30.375 26.7562 30.5062 26.45 30.5937 25.9875C30.65 25.6812 30.7125 25.525 30.7937 25.4812C31.0187 25.3562 31.35 24.9562 31.425 24.7062C31.55 24.2812 31.525 22.6125 31.375 22.0375C30.9375 20.3125 29.4812 19.175 27.725 19.1937C27.4125 19.1937 27.0062 19.2312 26.825 19.275ZM28.4812 20.425C28.9312 20.5687 29.2875 20.7875 29.625 21.1375C29.9125 21.4375 30.2312 22.0437 30.2937 22.3937L30.3312 22.6312L30.025 22.4437C29.825 22.3187 29.5687 22.2312 29.2812 22.1875C29.025 22.15 28.6562 22.0312 28.3937 21.9062C27.825 21.6312 27.6125 21.6312 27.075 21.9062C26.8187 22.0375 26.4875 22.1437 26.2437 22.1812C25.7437 22.25 25.5812 22.3187 25.3125 22.5375L25.1062 22.7125L25.15 22.4687C25.2187 22.075 25.5312 21.4687 25.8187 21.1562C26.4937 20.425 27.5437 20.1375 28.4812 20.425ZM28.0875 23.0375C28.2812 23.125 28.65 23.2375 28.9 23.2812C29.4562 23.375 29.475 23.3875 29.6125 23.675C29.7 23.8625 29.775 23.925 30.0125 23.9937C30.3312 24.0875 30.4437 24.25 30.3125 24.4062C30.2687 24.4562 30.1687 24.5 30.0812 24.5C29.9937 24.5 29.85 24.5812 29.7437 24.6812C29.6 24.825 29.5625 24.9187 29.5625 25.1375C29.5625 25.6312 29.4062 26.1187 29.1812 26.35C28.8937 26.6437 28.4687 26.9125 28.05 27.0562L27.7062 27.175L27.3562 27.0312C26.925 26.8562 26.4562 26.5625 26.2375 26.3312C26.075 26.1562 25.975 25.8187 25.9062 25.1875C25.85 24.7562 25.7437 24.5875 25.4875 24.5312C25.2312 24.475 25.125 24.3937 25.125 24.2437C25.125 24.1187 25.3 24 25.4875 24C25.6187 24 25.8187 23.7937 25.925 23.55C25.9625 23.4562 26.0562 23.3625 26.1375 23.35C26.2187 23.3312 26.4625 23.2875 26.6875 23.25C26.9125 23.2125 27.2187 23.1125 27.375 23.0375C27.7375 22.85 27.6812 22.85 28.0875 23.0375ZM27.375 28.2437C27.775 28.325 28.2062 28.2625 28.6937 28.0562C29.0062 27.9187 29.0187 27.9187 29.3312 28.0312C30.5812 28.4625 30.875 28.8625 30.875 30.125V30.875H27.7125H24.55L24.575 30.075C24.5937 29.4125 24.6187 29.2375 24.7312 29.0312C24.9437 28.625 25.25 28.3875 25.875 28.1312L26.4562 27.8875L26.7437 28.0312C26.9 28.1125 27.1875 28.2062 27.375 28.2437Z" fill="#BAFF00"/>
</g>
<defs>
<clipPath id="clip0_0_63">
<rect width="32" height="32" fill="white"/>
</clipPath>
</defs>
</svg>
