<svg width="37" height="32" viewBox="0 0 37 32" fill="none" xmlns="http://www.w3.org/2000/svg">
<g clip-path="url(#clip0_0_78)">
<path d="M8.663 3.57908C8.52619 3.62996 8.32525 3.75209 8.21409 3.84877C8.10293 3.94545 7.97467 4.03704 7.93619 4.0574C7.84641 4.0981 7.52576 4.68328 7.49156 4.86646C7.47446 4.94787 7.44881 5.00894 7.43171 5.00894C7.33338 5.00894 7.30345 5.56358 7.30345 7.29365V9.13058H5.14442H2.98539V8.54541C2.98539 8.14851 3.00249 7.96024 3.03242 7.96024C3.05807 7.96024 3.19061 7.88391 3.32314 7.78723C3.58394 7.59896 3.91741 7.07994 4.00292 6.73901C4.11835 6.27596 4.08842 5.57376 3.94306 5.26845C3.68227 4.72398 3.58821 4.58151 3.39155 4.46447C3.32314 4.41868 3.24619 4.35253 3.22053 4.31691C3.13503 4.1897 2.75453 4.07775 2.38685 4.07775C1.9636 4.07266 1.6344 4.17952 1.42491 4.38306C1.34368 4.45938 1.21969 4.57642 1.15129 4.64257C0.993102 4.78504 0.745134 5.32951 0.676729 5.68061C0.522818 6.4337 0.852017 7.38016 1.40353 7.78723L1.66005 7.9755V9.31377V10.6571H4.48175H7.30345V13.354V16.0509H6.08926H4.8708L4.84087 15.9338C4.77247 15.6591 4.5074 15.2418 4.29791 15.0688C3.7977 14.6566 3.65234 14.6007 3.15641 14.6007C2.75453 14.6007 2.4125 14.6719 2.3441 14.7737C2.33127 14.7889 2.25432 14.85 2.17309 14.9009C1.90802 15.0739 1.7028 15.308 1.55744 15.5929C1.33513 16.0254 1.17266 16.8498 1.26672 17.0889C1.2881 17.1449 1.32658 17.3026 1.3565 17.44C1.42918 17.8013 1.56172 18.1117 1.73273 18.3C1.81396 18.3916 1.92084 18.5188 1.96787 18.5798C2.01917 18.6409 2.18164 18.7579 2.33982 18.8343C2.59634 18.9615 2.66902 18.9767 3.13503 18.9767C3.57111 18.9767 3.68654 18.9564 3.89603 18.8597C4.20385 18.7121 4.65704 18.2084 4.75964 17.8929L4.83232 17.6792H6.06789H7.30345V20.1471V22.615H4.46037H1.6173V23.9583V25.3017L1.3736 25.4747C1.11281 25.6579 0.869118 25.9886 0.710932 26.3754C0.599774 26.6501 0.557021 27.2913 0.629701 27.6729C0.693831 28.0138 0.988826 28.543 1.23252 28.7567C1.3394 28.8534 1.46339 28.9603 1.51041 29.0061C1.55744 29.0468 1.67288 29.1079 1.76693 29.1384C1.9978 29.2198 2.62627 29.2147 2.82721 29.1333C3.02387 29.0519 3.44285 28.7313 3.56683 28.5634C3.72075 28.3497 3.92168 27.9172 3.97299 27.678C4.04994 27.3218 4.00292 26.6552 3.88748 26.3703C3.70792 25.9479 3.48988 25.6528 3.20771 25.4645L2.94692 25.2864L2.94264 24.7114V24.1415H5.12304H7.30345V25.7546C7.30345 26.645 7.32483 27.4643 7.3462 27.5762C7.36758 27.6882 7.46591 27.9629 7.56852 28.1868C7.76946 28.6295 8.03453 28.9196 8.45778 29.1689L8.69292 29.3063L18.0986 29.3216C28.385 29.3317 27.7266 29.3521 28.1114 29.0417C28.6586 28.5939 28.9579 28.08 29.0092 27.4846C29.022 27.3218 29.0519 27.1793 29.069 27.1641C29.0904 27.1488 29.1075 26.4619 29.1075 25.6375V24.1415H31.4589H33.8103V24.7216V25.3017L33.6949 25.3322C33.635 25.3526 33.4982 25.4391 33.3956 25.5205C32.7159 26.0802 32.5106 27.22 32.9168 28.1868C33.2161 28.8941 33.9813 29.3317 34.6782 29.1893C35.0416 29.118 35.1656 29.0519 35.5033 28.7364C36.0378 28.2428 36.2387 27.3422 36.0121 26.4466C35.9223 26.1006 35.6102 25.6477 35.3281 25.4594L35.0929 25.3017V23.9583V22.615H32.1002H29.1075V19.9181V17.2212H30.296L31.4803 17.2263L31.553 17.4146C31.5957 17.5164 31.7197 17.7402 31.8309 17.9082C31.9976 18.1524 32.1045 18.2491 32.4209 18.4374L32.8014 18.6714H33.2503C33.6992 18.6714 33.7077 18.6663 34.084 18.4475C34.5671 18.1626 34.8663 17.7606 35.0117 17.211C35.1357 16.7226 35.1143 15.9593 34.9604 15.5319C34.8364 15.196 34.4473 14.677 34.1994 14.5243C33.6393 14.1885 32.8698 14.1834 32.314 14.5243C32.1045 14.6516 31.7753 15.0332 31.6727 15.2673C31.523 15.6133 31.6 15.5929 30.296 15.5929H29.1075V13.125V10.6571H32.1216H35.1357V9.31377V7.97042L35.3238 7.86356C35.5931 7.70582 35.9138 7.27839 36.0378 6.91711C36.119 6.66268 36.1404 6.52021 36.1404 6.07751C36.1404 5.56358 36.1361 5.52796 35.9822 5.16159C35.7428 4.58151 35.2981 4.19478 34.7466 4.08793C34.1951 3.98107 33.6949 4.16934 33.2674 4.64257C32.9424 4.99876 32.8142 5.36004 32.7928 5.97574C32.78 6.32176 32.7971 6.54056 32.8441 6.73901C32.9168 7.04432 33.0579 7.34962 33.122 7.34962C33.1434 7.34962 33.1733 7.39542 33.1904 7.4514C33.2203 7.57352 33.5795 7.889 33.7377 7.9348L33.8531 7.97042V8.5505V9.13058H31.4803H29.1075V7.40051C29.1075 6.28105 29.0904 5.67043 29.0647 5.67043C29.0434 5.67043 29.022 5.59411 29.022 5.50252C29.0177 4.90208 28.6158 4.12354 28.1669 3.85386C28.0857 3.80297 28.0087 3.747 27.9959 3.72665C27.9831 3.70629 27.8933 3.65032 27.8035 3.59943C27.6411 3.51293 27.1622 3.50784 18.2696 3.49767C9.29147 3.48749 8.89814 3.49258 8.663 3.57908ZM27.3332 5.20739C27.4273 5.25827 27.5427 5.34986 27.5898 5.41601C27.6753 5.52796 27.6753 5.60937 27.6881 16.3613C27.6966 28.3802 27.7223 27.4134 27.4188 27.5864C27.3375 27.6322 27.2691 27.6882 27.2691 27.7136C27.2691 27.734 23.2033 27.7543 18.2354 27.7543C10.356 27.7543 9.18031 27.7441 9.07343 27.678C8.91096 27.5813 8.77415 27.4134 8.71857 27.2302C8.65872 27.047 8.65444 5.94521 8.71002 5.65517C8.75705 5.41601 8.89814 5.22774 9.07343 5.16668C9.15038 5.14124 13.0922 5.12088 18.1841 5.11579C26.8074 5.11071 27.1708 5.11579 27.3332 5.20739ZM2.76735 5.27862C3.14785 5.51269 3.27184 6.12331 3.03242 6.60671C2.73315 7.20715 2.00635 7.20715 1.68143 6.60162C1.53179 6.31158 1.51896 6.00627 1.64722 5.66026C1.81824 5.20739 2.35265 5.0242 2.76735 5.27862ZM34.8193 5.24301C35.2468 5.48216 35.4349 6.18437 35.1742 6.54056C35.1228 6.60671 35.0544 6.71357 35.016 6.77972C34.8621 7.05449 34.3789 7.15117 34.1053 6.9629C33.9044 6.82043 33.6436 6.3472 33.6393 6.12331C33.6393 5.80782 33.8616 5.40075 34.131 5.22265C34.2592 5.13615 34.6526 5.15141 34.8193 5.24301ZM33.5795 15.4861C34.007 15.7354 34.2037 16.2035 34.0925 16.7073C33.8916 17.6334 32.9424 17.8115 32.4978 17.0075C32.3952 16.8294 32.3781 16.7429 32.3781 16.463C32.3781 16.0356 32.4722 15.8372 32.7843 15.5827C33.0622 15.3588 33.3058 15.3283 33.5795 15.4861ZM3.47705 15.8423C3.88748 16.0712 4.10125 16.575 3.99436 17.0686C3.93024 17.3637 3.8148 17.5316 3.54973 17.7148C3.39155 17.8267 3.32742 17.842 3.07517 17.8217C2.73743 17.8013 2.55359 17.669 2.35265 17.3077C2.25859 17.1398 2.23722 17.0431 2.23722 16.7938C2.23722 16.5139 2.25432 16.458 2.3954 16.229C2.48091 16.0865 2.59634 15.944 2.65192 15.9033C2.89134 15.7252 3.22481 15.7049 3.47705 15.8423ZM2.7075 26.3499C2.92126 26.5026 3.11365 26.8893 3.11365 27.1742C3.11365 27.8612 2.45526 28.3344 1.93367 28.0189C1.7199 27.8917 1.64722 27.7849 1.55317 27.4897C1.46339 27.1946 1.48476 26.9656 1.63867 26.6552C1.84816 26.2329 2.33555 26.0955 2.7075 26.3499ZM34.7851 26.3346C34.9219 26.4161 34.9946 26.5026 35.063 26.6654C35.11 26.7875 35.1699 26.8893 35.187 26.8893C35.2041 26.8893 35.2212 27.0165 35.2212 27.1692C35.2212 27.3218 35.2041 27.449 35.1827 27.449C35.1613 27.449 35.1143 27.5406 35.0801 27.6475C34.9604 28.0037 34.5884 28.197 34.2122 28.1003C33.8061 27.9935 33.4982 27.4236 33.6008 26.9656C33.7462 26.3448 34.2934 26.0548 34.7851 26.3346Z" fill="#BAFF00"/>
<path d="M17.8717 16.234C17.4656 16.3612 17.1663 16.6157 16.9482 17.0176C16.6661 17.5367 16.6362 18.4068 16.8841 18.9869C16.9611 19.1701 17.0637 19.3532 17.115 19.399C17.2774 19.5517 17.3074 19.6891 17.3074 20.259C17.3074 20.5592 17.3288 20.895 17.3544 21.0019C17.4014 21.2156 17.6237 21.5464 17.7178 21.5464C17.752 21.5464 17.7777 21.5667 17.7777 21.5922C17.7777 21.6838 18.0898 21.7601 18.3976 21.7397C18.6626 21.7245 18.7396 21.699 18.8978 21.5667C18.9961 21.4853 19.1372 21.3123 19.2099 21.1902C19.3339 20.9663 19.3381 20.9408 19.351 20.2743C19.3638 19.6026 19.3681 19.5822 19.4835 19.4347C19.9709 18.8088 20.0863 17.9183 19.7742 17.2263C19.5134 16.6513 19.2099 16.3561 18.7524 16.2289C18.419 16.1373 18.1667 16.1373 17.8717 16.234ZM18.6883 17.3179C18.9149 17.496 19.0602 17.786 19.0602 18.071C19.056 18.361 18.8978 18.7019 18.7097 18.819C18.5002 18.9462 18.4745 19.0632 18.466 19.9435C18.4574 20.6355 18.4403 20.7322 18.3121 20.7322C18.1624 20.7322 18.1453 20.6406 18.1368 19.857C18.1325 19.4296 18.1197 19.0428 18.1026 18.9971C18.0855 18.9462 17.9871 18.8495 17.8845 18.7681C17.7563 18.6765 17.6751 18.5645 17.628 18.4322C17.4827 17.9946 17.5853 17.6181 17.9273 17.3382C18.1924 17.1143 18.4104 17.1143 18.6883 17.3179Z" fill="#BAFF00"/>
<path d="M17.8418 7.3497C17.7734 7.37514 17.581 7.43112 17.4143 7.47183C16.9739 7.58886 16.5164 7.79749 16.3412 7.96541C16.2556 8.04682 16.1659 8.11297 16.1402 8.11297C16.0376 8.11297 15.4006 8.82027 15.2296 9.12557C15.1697 9.24261 15.1013 9.3342 15.0842 9.3342C15.0415 9.3342 14.7037 10.1687 14.6695 10.357C14.6567 10.4384 14.631 10.5045 14.6139 10.5045C14.5626 10.5045 14.4899 10.9371 14.4429 11.4968C14.4215 11.7767 14.4002 12.7078 14.4002 13.5729V15.135L14.289 15.3538C14.2249 15.4709 14.1265 15.6337 14.071 15.7151C14.0154 15.7965 13.8914 16.0611 13.7973 16.3003C13.7033 16.5394 13.6007 16.7939 13.5665 16.8651C13.4767 17.0737 13.3399 17.7251 13.2886 18.1881C13.2074 18.9768 13.2501 19.9029 13.3997 20.6051C13.5451 21.2768 13.9641 22.2436 14.3531 22.8135C14.4985 23.0272 15.0799 23.7345 15.1099 23.7345C15.1184 23.7345 15.2552 23.8516 15.4134 23.994C15.935 24.4571 16.7174 24.8387 17.4399 24.9863C17.9658 25.088 19.056 25.0626 19.4664 24.9303C19.6075 24.8845 19.7528 24.8438 19.7913 24.8285C19.8811 24.8082 20.672 24.4062 20.7832 24.3299C21.0098 24.1721 21.5442 23.7091 21.7665 23.4699C22.2624 22.9356 22.784 22.0248 23.0577 21.2106C23.4125 20.1522 23.4724 18.6359 23.203 17.3892C23.0961 16.8855 22.7028 15.9237 22.4377 15.5116L22.2325 15.1961L22.2111 13.2167C22.1855 10.993 22.1727 10.8506 21.8777 10.0822C21.3433 8.68797 20.3899 7.76187 19.2313 7.49727C19.0773 7.46674 18.8935 7.40568 18.8166 7.37006C18.6712 7.29373 18.0555 7.28355 17.8418 7.3497ZM19.0218 8.94748C19.3039 9.03907 19.7229 9.26296 19.8683 9.41053C20.3129 9.84813 20.4454 10.0364 20.6934 10.5961C20.9286 11.1304 20.9499 11.2983 20.9713 12.6264C20.9841 13.3083 20.9799 13.8629 20.967 13.8629C20.9499 13.8629 20.7533 13.751 20.5224 13.6136C19.1586 12.7994 17.4656 12.8045 16.0804 13.6289C15.8623 13.7561 15.6742 13.8629 15.6571 13.8629C15.6443 13.8629 15.64 13.3083 15.6486 12.6264C15.6699 11.4357 15.6742 11.3848 15.7896 11.0134C15.9649 10.4435 16.1701 10.0568 16.4865 9.69548C17.1406 8.95765 18.1154 8.66761 19.0218 8.94748ZM18.8208 14.5295C19.7101 14.672 20.4198 15.0994 21.0568 15.8779C21.51 16.4326 21.8606 17.1501 22.0145 17.8574C22.1 18.2441 22.1171 18.4273 22.1128 19.0531C22.1085 20.0861 22.0401 20.371 21.5356 21.4854C21.4416 21.689 20.8944 22.3861 20.5523 22.7372C20.4711 22.8186 20.2445 22.9763 20.0436 23.0832C19.8426 23.1901 19.6246 23.3122 19.5519 23.358C19.1757 23.5768 18.124 23.6582 17.5425 23.5106C17.0979 23.3987 16.3069 22.9763 16.0504 22.7117C15.4262 22.0604 15.1697 21.6839 14.8875 21.0224C14.6097 20.3558 14.5284 19.9742 14.4985 19.2058C14.46 18.1474 14.7251 17.145 15.2723 16.285C16.1146 14.962 17.4527 14.3005 18.8208 14.5295Z" fill="#BAFF00"/>
</g>
<defs>
<clipPath id="clip0_0_78">
<rect width="36.9231" height="32" fill="white"/>
</clipPath>
</defs>
</svg>
